<?xml version="1.0" encoding="UTF-8" standalone="no"?>
<!-- Created with Inkscape (http://www.inkscape.org/) -->

<svg
   version="1.1"
   id="svg1"
   width="546.87122"
   height="549.31927"
   viewBox="0 0 546.87121 549.31927"
   sodipodi:docname="acebook-logo.svg"
   inkscape:version="1.3.2 (091e20e, 2023-11-25)"
   inkscape:export-filename="acebook-logo.png"
   inkscape:export-xdpi="17.554407"
   inkscape:export-ydpi="17.554407"
   xmlns:inkscape="http://www.inkscape.org/namespaces/inkscape"
   xmlns:sodipodi="http://sodipodi.sourceforge.net/DTD/sodipodi-0.dtd"
   xmlns="http://www.w3.org/2000/svg"
   xmlns:svg="http://www.w3.org/2000/svg">
  <defs
     id="defs1" />
  <sodipodi:namedview
     id="namedview1"
     pagecolor="#ffffff"
     bordercolor="#000000"
     borderopacity="0.25"
     inkscape:showpageshadow="2"
     inkscape:pageopacity="0.0"
     inkscape:pagecheckerboard="0"
     inkscape:deskcolor="#d1d1d1"
     inkscape:clip-to-page="false"
     inkscape:zoom="0.84892086"
     inkscape:cx="233.82627"
     inkscape:cy="275.64407"
     inkscape:window-width="1440"
     inkscape:window-height="793"
     inkscape:window-x="196"
     inkscape:window-y="1105"
     inkscape:window-maximized="0"
     inkscape:current-layer="g1"
     showgrid="false" />
  <g
     inkscape:groupmode="layer"
     id="layer1"
     inkscape:label="Image 1"
     style="display:none">
    <g
       inkscape:groupmode="layer"
       id="layer3"
       inkscape:label="Combined 1"
       style="display:inline">
      <rect
         style="display:inline;fill:#800000"
         id="rect2"
         width="769.21185"
         height="653.77118"
         x="-43.584747"
         y="-24.737288" />
    </g>
  </g>
  <g
     inkscape:groupmode="layer"
     inkscape:label="Image"
     id="g1"
     transform="translate(-5.4835817,-4.3544993)"
     style="display:inline">
    <rect
       style="display:inline;fill:#ffffff"
       id="rect1"
       width="394.61865"
       height="343.96609"
       x="78.923729"
       y="104.83898"
       inkscape:label="rect1"
       transform="translate(5.4835817,4.3544993)" />
    <path
       style="display:inline;fill:#000000"
       d="M 255.49961,552.80654 C 216.81494,549.83845 171.25597,534.77718 137.29879,513.7307 71.809268,473.14068 25.509096,406.78809 10.177228,331.55333 3.9378634,300.93624 3.9168024,256.09598 10.127728,226.16627 21.546102,171.14251 47.315469,123.35891 86.729849,84.124549 128.84738,42.199399 178.71842,16.820501 238.8902,6.691618 c 20.07595,-3.3794389 62.91804,-3.039025 83.74643,0.66543 38.33882,6.81879 74.60604,21.073518 104.86297,41.216093 72.70858,48.403388 118.19243,125.593259 124.16607,210.720109 5.58373,79.57059 -22.93036,155.95793 -79.4994,212.97351 -58.05317,58.51143 -134.31185,86.85847 -216.66666,80.53978 z m 40.87637,-114.58202 c 12.01861,-3.76823 37.65476,-8.89497 54.45696,-10.89034 19.37743,-2.30121 61.96925,-2.29289 85.64092,0.0167 15.28346,1.49118 19.3683,1.52427 21,0.17008 1.78591,-1.48217 2.02574,-16.57643 2.02574,-127.49255 V 174.21708 l -3.17223,-0.79618 c -1.74472,-0.4379 -4.76936,-0.59933 -6.72141,-0.35874 l -3.54919,0.43745 -0.27858,114 -0.27859,114 -28.66667,0.8228 c -34.82454,0.99956 -57.86516,4.53522 -89.54934,13.74165 -12.2971,3.57315 -37.62679,12.91821 -44.13024,16.28127 -3.71356,1.92035 -4.47669,1.78534 -14.78471,-2.6157 -41.24304,-17.60887 -80.05409,-25.97964 -126.86902,-27.36315 l -29.33333,-0.86687 -0.32874,-111.33334 c -0.1808,-61.23333 -0.3308,-112.68333 -0.33333,-114.33333 -0.004,-2.52511 -0.72606,-3 -4.56222,-3 -9.606587,0 -8.775722,-12.05368 -8.775722,127.31273 0,110.81123 0.239858,125.89315 2.025732,127.3753 1.6317,1.35419 5.71655,1.3211 21.00002,-0.17008 25.05085,-2.44417 69.14714,-2.19532 89.70534,0.50623 16.99234,2.23296 43.83414,7.85533 52.24513,10.94344 7.46531,2.7409 23.5431,2.46222 33.23348,-0.57604 z m -0.67475,-19.20943 C 335.90408,403.55786 372.271,396.08057 414.4996,394.58934 l 23.66667,-0.83575 V 269.95993 146.16627 h -7.33334 -7.33333 V 260.727 375.28773 l -3.66667,0.69146 c -2.01666,0.3803 -7.86666,1.06735 -12.99999,1.52677 -32.51901,2.91038 -78.06122,17.27605 -112.36616,35.44437 -6.80139,3.6021 -13.83662,6.54928 -15.63384,6.54928 -1.79722,0 -8.83245,-2.97162 -15.63384,-6.60359 -32.42679,-17.31605 -75.5941,-31.08225 -109.03281,-34.77092 -7.7,-0.8494 -15.35,-1.79905 -17,-2.11033 l -3,-0.56597 V 260.80754 146.16627 h -7.33333 -7.33334 v 123.79988 123.79987 l 23.66667,0.82275 c 42.68938,1.48404 81.25462,9.46736 119.66665,24.77197 7.33333,2.92184 14.32406,5.34838 15.53496,5.39232 1.21089,0.0439 9.01089,-2.53815 17.33333,-5.73797 z M 275.49961,285.56943 V 160.97259 l -11.13149,-6.06778 C 232.1748,137.35622 178.51678,120.54089 150.51065,119.22421 l -8.3223,-0.39127 -0.045,124.66667 -0.045,124.66666 4.36731,0.93728 c 2.40202,0.5155 10.80488,1.89184 18.673,3.05853 31.34633,4.64806 68.54533,17.14278 100.36097,33.7101 4.4,2.2912 8.45,4.19469 9,4.22996 0.55,0.0353 1,-56.00444 1,-124.53271 z m 26.81868,115.35909 c 29.95672,-14.42719 61.66931,-24.53695 90.26323,-28.77528 7.83828,-1.16183 16.2168,-2.53419 18.61893,-3.04969 l 4.36751,-0.93728 -0.0204,-124.5418 c -0.0112,-68.49799 -0.28808,-124.80946 -0.61521,-125.13659 -1.01392,-1.01392 -23.3505,2.3095 -39.18902,5.83086 -26.10113,5.80305 -63.55869,19.8575 -85.24284,31.98397 l -8.33419,4.66074 v 124.60141 c 0,68.53078 0.21841,124.60141 0.48535,124.60141 0.26694,0 9.11694,-4.15698 19.66667,-9.23775 z m 85.32827,-39.76225 c -3.23289,-12.53869 -5.85833,-28.09166 -5.08309,-30.11192 1.18165,-3.07932 4.93613,-2.8005 4.93613,0.36657 0,3.63246 2.21366,4.58985 6.50378,2.81282 2.77585,-1.14979 3.98067,-2.87341 4.91953,-7.03786 1.28732,-5.71014 3.69837,-7.90832 4.988,-4.54759 0.82512,2.15021 -5.81999,39.23207 -7.4998,41.85132 -0.58789,0.91666 -2.51035,1.66666 -4.27214,1.66666 -2.58346,0 -3.45269,-0.96744 -4.49241,-5 z m 7.25683,-17.37399 c -0.44034,-0.44033 -1.60593,0.0637 -2.59021,1.12003 -1.36918,1.46943 -1.46925,3.01694 -0.42598,6.5873 l 1.36362,4.66666 1.22659,-5.78668 c 0.67463,-3.18268 0.86632,-6.14697 0.42598,-6.58731 z M 384.10067,319.9102 c -3.76552,-3.76552 -2.00199,-18.3622 3.55559,-29.42945 2.4805,-4.93963 5.38148,-8.98114 6.4466,-8.98114 1.06513,0 3.72133,2.53937 5.90268,5.64305 3.34192,4.75496 3.9814,6.9674 4.06341,14.05825 0.10285,8.8931 -2.52393,15.09276 -6.98037,16.47494 -1.2406,0.38478 -3.84822,1.55253 -5.7947,2.59501 -4.42697,2.37095 -4.46342,2.36913 -7.19321,-0.36066 z m 7.84422,-11.41059 c 1.7731,-2.52833 2.31135,-2.69163 3.42347,-1.03862 1.84636,2.74437 3.22703,0.85837 3.08289,-4.21123 -0.13155,-4.62685 -2.67473,-10.41682 -4.57548,-10.41682 -1.74918,0 -6.31324,10.78651 -6.34688,15 -0.0355,4.44805 1.59185,4.69373 4.416,0.66667 z m -57.25104,-2.68739 c -5.0997,-4.8108 -10.67263,-11.55103 -12.38428,-14.9783 -12.05922,-24.14624 -9.54432,-58.0649 5.22679,-70.49397 4.87619,-4.10304 11.20167,-4.59707 15.02772,-1.17368 2.48971,2.22769 2.67558,2.21738 4.10499,-0.22773 3.47986,-5.95252 10.59246,-12.65452 14.29221,-13.46712 5.20577,-1.14338 10.13974,2.0819 12.75311,8.33658 4.01065,9.59884 1.91409,36.09919 -4.30599,54.42714 -4.85972,14.31959 -15.65758,34.94847 -22.39019,42.7756 l -3.05218,3.54838 z m 16.09824,-11.5787 c 12.60109,-20.74363 19.36332,-41.97357 19.34518,-60.73391 -0.0122,-12.58459 -1.83648,-17.15653 -7.08808,-17.76355 -5.44815,-0.62974 -9.52728,2.71653 -13.46939,11.04948 -1.92041,4.0594 -3.83335,7.38073 -4.25098,7.38073 -0.41763,0 -2.44077,-1.8 -4.49588,-4 -4.69537,-5.02641 -6.75064,-5.01548 -12.53887,0.0667 -14.38202,12.62758 -9.73262,48.71349 8.47012,65.74002 3.64164,3.40633 7.20343,6.19333 7.91509,6.19333 0.71165,0 3.46242,-3.56973 6.11281,-7.93275 z M 291.6009,239.99221 c -8.10231,-10.30041 -5.90162,-32.4926 3.22213,-32.4926 1.6592,0 3.76366,-0.9 4.67658,-2 2.42479,-2.9217 4.97439,-2.45399 7.48157,1.37245 3.09947,4.73039 1.55731,16.15611 -3.72896,27.62755 -4.62883,10.04475 -7.13958,11.22835 -11.65132,5.4926 z m 8.51119,-11.4926 c 4.43212,-10.61243 3.7866,-18.46074 -0.93366,-11.35165 -1.61771,2.43641 -2.34044,2.68236 -3.95197,1.3449 -3.97917,-3.30241 -4.97716,2.09999 -1.79489,9.71624 2.41292,5.77494 4.35477,5.85938 6.68052,0.29051 z m -13.94582,-26.32689 c 0,-0.83733 1.57486,-10.33133 3.49969,-21.09777 3.50645,-19.61311 4.9308,-22.90868 9.90119,-22.90868 3.19319,0 10.4829,33.59357 7.95156,36.64365 -2.48393,2.99295 -3.70551,2.48613 -4.67783,-1.94082 -0.84938,-3.86722 -0.97342,-3.92188 -5.08865,-2.24269 -3.20183,1.30648 -4.5722,2.98422 -5.68805,6.96384 -1.34196,4.78604 -5.89791,8.32586 -5.89791,4.58247 z m 13.23962,-24.48243 c -0.0515,-1.57154 -0.55216,-4.02927 -1.11248,-5.46161 -0.86269,-2.20527 -1.15474,-1.9244 -1.90629,1.83334 -1.3352,6.67603 -1.11556,8.10807 1.11249,7.25309 1.1,-0.42211 1.95782,-2.05328 1.90628,-3.62482 z"
       id="path1" />
  </g>
</svg>
