<svg width="546.871" height="549.319" xmlns="http://www.w3.org/2000/svg" viewBox="0 0 546.871 549.319"><path style="fill:#000" d="M255.5 552.807c-38.685-2.969-84.244-18.03-118.201-39.076-65.49-40.59-111.79-106.943-127.122-182.178-6.24-30.617-6.26-75.457-.05-105.387C21.548 171.143 47.316 123.36 86.73 84.125c42.117-41.926 91.988-67.304 152.16-77.433 20.076-3.38 62.918-3.04 83.747.665 38.338 6.819 74.606 21.074 104.863 41.216 72.708 48.404 118.192 125.593 124.166 210.72 5.583 79.57-22.93 155.958-79.5 212.974-58.053 58.511-134.312 86.858-216.666 80.54zm40.876-114.582c12.019-3.769 37.655-8.895 54.457-10.89 19.377-2.302 61.97-2.294 85.64.016 15.284 1.491 19.37 1.524 21 .17 1.787-1.482 2.027-16.576 2.027-127.493v-125.81l-3.173-.797c-1.744-.438-4.769-.6-6.721-.359l-3.55.438-.278 114-.278 114-28.667.822c-34.825 1-57.865 4.536-89.55 13.742-12.297 3.573-37.626 12.918-44.13 16.281-3.713 1.92-4.476 1.786-14.784-2.615-41.243-17.61-80.054-25.98-126.87-27.364l-29.333-.866-.328-111.334c-.181-61.233-.331-112.683-.334-114.333-.004-2.525-.726-3-4.562-3-9.607 0-8.776-12.054-8.776 127.313 0 110.81.24 125.893 2.026 127.375 1.632 1.354 5.717 1.321 21-.17 25.05-2.444 69.147-2.195 89.705.506 16.993 2.233 43.835 7.855 52.245 10.944 7.466 2.74 23.544 2.462 33.234-.576zm-.675-19.21c40.203-15.457 76.57-22.934 118.799-24.426l23.666-.835V146.166H423.5v229.121l-3.667.692c-2.017.38-7.867 1.068-13 1.527-32.52 2.91-78.061 17.276-112.366 35.444-6.802 3.602-13.837 6.55-15.634 6.55-1.797 0-8.833-2.972-15.634-6.604-32.427-17.316-75.594-31.082-109.033-34.77-7.7-.85-15.35-1.8-17-2.111l-3-.566V146.166H119.5v247.6l23.666.823c42.69 1.484 81.255 9.467 119.667 24.772 7.333 2.922 14.324 5.348 15.535 5.392 1.21.044 9.01-2.538 17.333-5.738zM275.5 285.57V160.973l-11.132-6.068c-32.193-17.549-85.851-34.364-113.857-35.68l-8.323-.392-.045 124.667-.045 124.666 4.368.938c2.402.515 10.805 1.891 18.673 3.058 31.346 4.648 68.545 17.143 100.36 33.71 4.4 2.291 8.45 4.195 9 4.23.55.035 1-56.004 1-124.533zm26.818 115.36c29.957-14.428 61.67-24.537 90.264-28.776 7.838-1.162 16.216-2.534 18.618-3.05l4.368-.937-.02-124.542c-.012-68.498-.289-124.809-.616-125.136-1.014-1.014-23.35 2.31-39.189 5.83-26.1 5.804-63.558 19.858-85.243 31.985l-8.334 4.66v124.602c0 68.53.219 124.601.486 124.601s9.117-4.157 19.666-9.237zm85.329-39.763c-3.233-12.538-5.859-28.091-5.084-30.112 1.182-3.079 4.937-2.8 4.937.367 0 3.632 2.213 4.59 6.503 2.813 2.776-1.15 3.981-2.874 4.92-7.038 1.287-5.71 3.698-7.908 4.988-4.548.825 2.15-5.82 39.232-7.5 41.852-.588.916-2.51 1.666-4.272 1.666-2.583 0-3.453-.967-4.492-5zm7.256-17.374c-.44-.44-1.606.064-2.59 1.12-1.369 1.47-1.47 3.017-.426 6.588l1.364 4.666 1.226-5.786c.675-3.183.867-6.147.426-6.588zm-10.802-23.882c-3.766-3.765-2.002-18.362 3.555-29.43 2.48-4.939 5.382-8.98 6.447-8.98 1.065 0 3.721 2.539 5.903 5.643 3.341 4.755 3.98 6.967 4.063 14.058.103 8.893-2.524 15.093-6.98 16.475-1.241.385-3.849 1.552-5.795 2.595-4.427 2.37-4.464 2.369-7.193-.36zm7.844-11.41c1.773-2.529 2.311-2.692 3.423-1.039 1.847 2.744 3.227.858 3.083-4.211-.131-4.627-2.674-10.417-4.575-10.417-1.75 0-6.313 10.786-6.347 15-.036 4.448 1.592 4.694 4.416.667zm-57.251-2.688c-5.1-4.81-10.673-11.55-12.384-14.978-12.06-24.146-9.545-58.065 5.226-70.494 4.877-4.103 11.202-4.597 15.028-1.174 2.49 2.228 2.676 2.218 4.105-.227 3.48-5.953 10.593-12.655 14.292-13.468 5.206-1.143 10.14 2.082 12.753 8.337 4.011 9.599 1.914 36.1-4.306 54.427-4.86 14.32-15.657 34.949-22.39 42.776l-3.052 3.548zm16.098-11.578c12.601-20.744 19.363-41.974 19.345-60.734-.012-12.585-1.836-17.157-7.088-17.764-5.448-.63-9.527 2.717-13.47 11.05-1.92 4.059-3.833 7.38-4.25 7.38-.418 0-2.441-1.8-4.496-4-4.695-5.026-6.75-5.015-12.539.067-14.382 12.628-9.733 48.713 8.47 65.74 3.642 3.406 7.204 6.193 7.915 6.193.712 0 3.463-3.57 6.113-7.932zm-59.191-54.242c-8.102-10.3-5.902-32.492 3.222-32.492 1.66 0 3.764-.9 4.677-2 2.424-2.922 4.974-2.454 7.481 1.372 3.1 4.73 1.557 16.156-3.729 27.628-4.629 10.044-7.14 11.228-11.651 5.492zm8.511-11.492c4.432-10.613 3.787-18.461-.934-11.352-1.617 2.436-2.34 2.682-3.952 1.345-3.979-3.303-4.977 2.1-1.794 9.716 2.412 5.775 4.354 5.86 6.68.29zm-13.946-26.327c0-.838 1.575-10.332 3.5-21.098 3.506-19.613 4.93-22.909 9.901-22.909 3.193 0 10.483 33.594 7.952 36.644-2.484 2.993-3.706 2.486-4.678-1.94-.85-3.868-.974-3.923-5.089-2.244-3.202 1.307-4.572 2.985-5.688 6.964-1.342 4.786-5.898 8.326-5.898 4.583zm13.24-24.483c-.052-1.571-.552-4.029-1.113-5.461-.862-2.206-1.154-1.925-1.906 1.833-1.335 6.676-1.115 8.108 1.113 7.253 1.1-.422 1.957-2.053 1.906-3.625z" transform="translate(-5.484 -4.354)"/></svg>