<?xml version="1.0" encoding="iso-8859-1"?>
<!-- Uploaded to: SVG Repo, www.svgrepo.com, Generator: SVG Repo Mixer Tools -->
<svg height="800px" width="800px" version="1.1" id="Layer_1" xmlns="http://www.w3.org/2000/svg" xmlns:xlink="http://www.w3.org/1999/xlink" 
	 viewBox="0 0 512 512" xml:space="preserve">
<g transform="translate(-1)">
	<path style="fill:#88C057;" d="M477.69,128c0,121.688-99.001,220.69-220.69,220.69S36.31,249.688,36.31,128H1
		c0,141.383,114.617,256,256,256s256-114.617,256-256H477.69z"/>
	<path style="fill:#E22F37;" d="M36.31,128c0,121.688,99.001,220.69,220.69,220.69S477.69,249.688,477.69,128H36.31z"/>
	<g>
		<path style="fill:#231F1F;" d="M177.552,233.931c-2.26,0-4.52-0.865-6.241-2.586c-3.452-3.452-3.452-9.031,0-12.482l8.828-8.828
			c3.452-3.452,9.031-3.452,12.482,0c3.452,3.452,3.452,9.031,0,12.482l-8.828,8.828
			C182.071,233.066,179.812,233.931,177.552,233.931"/>
		<path style="fill:#231F1F;" d="M115.759,251.586c-2.26,0-4.52-0.865-6.241-2.586l-8.828-8.828c-3.452-3.452-3.452-9.031,0-12.482
			s9.031-3.452,12.482,0l8.828,8.828c3.452,3.452,3.452,9.031,0,12.482C120.278,250.721,118.018,251.586,115.759,251.586"/>
		<path style="fill:#231F1F;" d="M318.793,189.793c-2.26,0-4.52-0.865-6.241-2.586c-3.452-3.452-3.452-9.031,0-12.482l8.828-8.828
			c3.452-3.452,9.031-3.452,12.482,0c3.452,3.452,3.452,9.031,0,12.482l-8.828,8.828
			C323.313,188.928,321.053,189.793,318.793,189.793"/>
		<path style="fill:#231F1F;" d="M177.552,189.793c-2.26,0-4.52-0.865-6.241-2.586l-8.828-8.828c-3.452-3.452-3.452-9.031,0-12.482
			s9.031-3.452,12.482,0l8.828,8.828c3.452,3.452,3.452,9.031,0,12.482C182.071,188.928,179.812,189.793,177.552,189.793"/>
		<path style="fill:#231F1F;" d="M301.138,251.586c-2.26,0-4.52-0.865-6.241-2.586c-3.452-3.452-3.452-9.031,0-12.482l8.828-8.828
			c3.452-3.452,9.031-3.452,12.482,0c3.452,3.452,3.452,9.031,0,12.482L307.379,249
			C305.658,250.721,303.398,251.586,301.138,251.586"/>
		<path style="fill:#231F1F;" d="M248.172,216.276c-2.26,0-4.52-0.865-6.241-2.586c-3.452-3.452-3.452-9.031,0-12.482l8.828-8.828
			c3.452-3.452,9.031-3.452,12.482,0c3.452,3.452,3.452,9.031,0,12.482l-8.828,8.828
			C252.692,215.411,250.432,216.276,248.172,216.276"/>
		<path style="fill:#231F1F;" d="M257,304.543c-2.26,0-4.52-0.865-6.241-2.586c-3.452-3.452-3.452-9.039,0-12.491l8.828-8.819
			c3.452-3.434,9.031-3.443,12.482,0.009c3.452,3.452,3.452,9.039,0,12.482l-8.828,8.828C261.52,303.678,259.26,304.543,257,304.543
			"/>
		<path style="fill:#231F1F;" d="M415.897,180.966c-2.26,0-4.52-0.865-6.241-2.586l-8.828-8.828c-3.452-3.452-3.452-9.031,0-12.482
			c3.452-3.452,9.031-3.452,12.482,0l8.828,8.828c3.452,3.452,3.452,9.031,0,12.482C420.416,180.1,418.156,180.966,415.897,180.966"
			/>
		<path style="fill:#231F1F;" d="M380.586,225.103c-2.26,0-4.52-0.865-6.241-2.586l-8.828-8.828c-3.452-3.452-3.452-9.031,0-12.482
			c3.452-3.452,9.031-3.452,12.482,0l8.828,8.828c3.452,3.452,3.452,9.031,0,12.482
			C385.106,224.238,382.846,225.103,380.586,225.103"/>
		<path style="fill:#231F1F;" d="M98.103,180.966c-2.26,0-4.52-0.865-6.241-2.586l-8.828-8.828c-3.452-3.452-3.452-9.031,0-12.482
			s9.031-3.452,12.482,0l8.828,8.828c3.452,3.452,3.452,9.031,0,12.482C102.623,180.1,100.363,180.966,98.103,180.966"/>
		<path style="fill:#231F1F;" d="M212.862,278.069c-2.26,0-4.52-0.865-6.241-2.586l-8.828-8.828c-3.452-3.452-3.452-9.031,0-12.482
			c3.452-3.452,9.031-3.452,12.482,0l8.828,8.828c3.452,3.452,3.452,9.031,0,12.482
			C217.382,277.204,215.122,278.069,212.862,278.069"/>
	</g>
</g>
</svg>